<?xml version="1.0" encoding="UTF-8"?>
<!-- Generator: visioncortex VTracer 0.6.3 -->
<svg version="1.1" xmlns="http://www.w3.org/2000/svg" width="1280" height="956">
<path d="M0 0 C2.54 3.33 2.93 5.46 3 9.62 C2.14 14.42 0.44 16.32 -3.38 19.24 C-6.48 21.88 -8.63 25.34 -11 28.62 C-27.1 50.23 -27.1 50.23 -39.19 52.12 C-45.15 51.34 -50.48 48.95 -56 46.62 C-56 45.97 -56 45.3 -56 44.62 C-56.62 44.38 -57.24 44.13 -57.88 43.88 C-60.46 42.35 -60.87 41.37 -62 38.62 C-64.41 28.32 -61.9 19.05 -56.47 10.1 C-55.06 8.17 -53.63 6.38 -52 4.62 C-51.39 3.96 -50.78 3.29 -50.15 2.61 C-35.77 -10.67 -15.03 -11.9 0 0 Z M-33.38 1 C-34.52 1.26 -35.66 1.51 -36.84 1.77 C-39.49 2.49 -41.62 3.28 -44 4.62 C-44 5.28 -44 5.95 -44 6.62 C-44.66 6.62 -45.32 6.62 -46 6.62 C-50.56 11.51 -55.08 17.67 -54.94 24.56 C-53.34 29.79 -51.3 35.05 -47 38.62 C-42.43 39.66 -38.5 40 -34 38.62 C-31.38 36.33 -31.38 36.33 -29 33.62 C-28.2 33.01 -27.4 32.4 -26.57 31.77 C-19.67 26.01 -14.92 16.34 -13 7.62 C-12.91 5.43 -12.91 5.43 -14 3.62 C-16.47 2.26 -16.47 2.26 -19.44 1.38 C-20.43 1.04 -21.41 0.7 -22.43 0.36 C-26.45 -0.79 -29.32 0.08 -33.38 1 Z " fill="#000000" transform="translate(846,631.375)"/>
</svg>
