<svg xmlns="http://www.w3.org/2000/svg" width="432" height="578" viewBox="0 0 432 578" version="1.1"><path d="M 176 271.559 C 176 272.416, 176.450 272.840, 177 272.500 C 177.550 272.160, 178 271.459, 178 270.941 C 178 270.423, 177.550 270, 177 270 C 176.450 270, 176 270.702, 176 271.559 M 183.264 289.861 C 183.351 291.009, 184.012 292.174, 184.734 292.451 C 185.782 292.853, 185.813 292.506, 184.888 290.727 C 183.257 287.593, 183.087 287.502, 183.264 289.861 M 168.070 291.167 C 168.032 292.083, 167.482 293.006, 166.850 293.217 C 166.218 293.428, 165.880 294.109, 166.100 294.730 C 166.394 295.559, 166.926 295.546, 168.100 294.679 C 169.199 293.869, 169.456 292.871, 168.921 291.499 C 168.308 289.928, 168.126 289.857, 168.070 291.167 M 163.082 305.255 C 161.753 309.790, 160.251 314.043, 159.746 314.706 C 158.807 315.940, 159.513 318, 160.876 318 C 161.292 318, 162.236 314.962, 162.973 311.250 C 163.711 307.538, 164.918 303.052, 165.657 301.282 C 167.203 297.577, 167.284 296.998, 166.250 297.005 C 165.838 297.008, 164.412 300.720, 163.082 305.255" stroke="none" fill="#49464c" fill-rule="evenodd"/><path d="M 175.474 270.195 C 175.092 271.463, 173.233 276.056, 171.344 280.401 C 168.572 286.779, 168.090 288.819, 168.843 290.980 C 169.602 293.156, 169.423 293.880, 167.888 294.838 C 166.369 295.787, 166 295.739, 166 294.592 C 166 293.808, 166.518 292.994, 167.150 292.783 C 167.782 292.572, 168.067 291.748, 167.781 290.950 C 167.103 289.054, 165.888 291.883, 162.392 303.500 C 160.902 308.450, 159.214 313.260, 158.640 314.188 C 157.887 315.406, 157.976 316.587, 158.960 318.426 C 160.913 322.075, 162.508 320.241, 163.912 312.733 C 164.553 309.305, 166.010 303.923, 167.151 300.774 C 169.068 295.483, 169.502 295.003, 172.863 294.457 C 174.863 294.131, 177.625 293.671, 179 293.434 C 182.574 292.818, 183.530 293.805, 185.358 300 C 187.143 306.047, 188.572 308.762, 189.486 307.847 C 190.150 307.183, 187.396 293.623, 185.963 290.500 C 184.290 286.851, 179.858 274.546, 179.148 271.575 C 178.266 267.886, 176.384 267.179, 175.474 270.195 M 176 271.559 C 176 272.416, 176.450 272.840, 177 272.500 C 177.550 272.160, 178 271.459, 178 270.941 C 178 270.423, 177.550 270, 177 270 C 176.450 270, 176 270.702, 176 271.559 M 175.342 277.750 C 175.014 278.712, 173.678 281.835, 172.373 284.688 C 169.032 291.993, 169.160 292.387, 174.640 291.636 C 177.191 291.286, 179.891 291, 180.640 291 C 182.573 291, 182.328 288.035, 179.861 281.589 C 177.651 275.814, 176.371 274.726, 175.342 277.750 M 183.264 289.861 C 183.351 291.009, 184.012 292.174, 184.734 292.451 C 185.782 292.853, 185.813 292.506, 184.888 290.727 C 183.257 287.593, 183.087 287.502, 183.264 289.861 M 163.082 305.255 C 161.753 309.790, 160.251 314.043, 159.746 314.706 C 158.807 315.940, 159.513 318, 160.876 318 C 161.292 318, 162.236 314.962, 162.973 311.250 C 163.711 307.538, 164.918 303.052, 165.657 301.282 C 167.203 297.577, 167.284 296.998, 166.250 297.005 C 165.838 297.008, 164.412 300.720, 163.082 305.255" stroke="none" fill="#828284" fill-rule="evenodd"/></svg>