<?xml version="1.0" encoding="UTF-8"?>
<!-- Generator: visioncortex VTracer 0.6.3 -->
<svg version="1.1" xmlns="http://www.w3.org/2000/svg" width="1280" height="956">
<path d="M0 0 C9.68 -0.9 16.12 3.31 23.5 9.25 C25.34 10.82 27.18 12.4 29 14 C29.86 14.74 30.72 15.47 31.6 16.23 C45.61 28.48 57.95 42.19 60.27 61.21 C60.74 70.04 56.64 78.42 51 85 C49.51 85.5 49.51 85.5 48 86 C48 86.66 48 87.32 48 88 C47.34 88 46.68 88 46 88 C46 88.66 46 89.32 46 90 C43.55 91.66 43.55 91.66 40.31 93.5 C39.26 94.11 38.2 94.72 37.11 95.34 C27.97 100.21 17.46 101.3 7.32 98.87 C2.25 96.97 -2.18 93.82 -6 90 C-6.46 87.64 -6.82 85.26 -7.12 82.88 C-7.29 81.59 -7.46 80.31 -7.63 78.99 C-7.75 78 -7.88 77.02 -8 76 C-8.9 76.06 -9.8 76.13 -10.73 76.2 C-15.99 75.88 -18.62 72.8 -22 69 C-23.81 65.94 -23.81 65.94 -24 63 C-21 57.45 -16.77 55.42 -10.86 53.5 C-6.36 52.71 -2.82 53.51 1 56 C2.56 58.69 2.56 58.69 3 61 C0.43 63.57 -1.48 63.41 -5 64 C-5.99 64.99 -5.99 64.99 -7 66 C-8.65 65.34 -10.3 64.68 -12 64 C-11.89 66.86 -11.89 66.86 -11 70 C-9.38 71.39 -7.71 72.73 -6 74 C-6 74.99 -6 75.98 -6 77 C-4.51 77.5 -4.51 77.5 -3 78 C-2.2 79.27 -2.2 79.27 -1.38 80.56 C1.9 85.66 6.36 91.08 12.42 92.61 C24.42 92.98 35.35 88.14 43.94 80.08 C49.31 74.66 50.4 70.77 50.56 63.25 C50.43 51.07 44.85 42.95 37 34 C36.2 33.06 35.4 32.11 34.58 31.14 C30.01 25.89 25.65 21.64 19.62 18.12 C19.08 17.75 18.55 17.38 18 17 C18 16.34 18 15.68 18 15 C17.3 14.73 16.61 14.46 15.89 14.19 C12.79 12.91 9.81 11.49 6.81 10 C5.77 9.48 4.72 8.97 3.64 8.44 C1 7 1 7 -1 5 C-0.62 2.38 -0.62 2.38 0 0 Z " fill="#000000" transform="translate(619,590)"/>
</svg>
