<?xml version="1.0" encoding="UTF-8"?>
<!-- Generator: visioncortex VTracer 0.6.3 -->
<svg version="1.1" xmlns="http://www.w3.org/2000/svg" width="1280" height="956">
<path d="M0 0 C0 0.66 0 1.32 0 2 C0.6 2.14 1.2 2.29 1.81 2.44 C3.56 2.89 5.29 3.43 7 4 C7 4.66 7 5.32 7 6 C7.66 6 8.32 6 9 6 C12.03 11.27 13.58 16.16 12.67 22.2 C9.93 32.33 1.56 38.65 -6.39 44.86 C-9.11 47.09 -11.53 49.5 -14 52 C-15.18 52.97 -16.36 53.93 -17.56 54.88 C-20.05 56.96 -21.66 58.83 -23.19 61.69 C-25.32 65.59 -27.04 67.17 -31.06 68.88 C-33 69 -33 69 -34.81 67.88 C-36 66 -36 66 -36.06 63.81 C-33.9 58.09 -30.54 53.62 -25 51 C-23.91 49.07 -23.91 49.07 -23 47 C-20.97 44.61 -20.07 44.02 -17 43 C-15.83 41.56 -14.66 40.12 -13.51 38.66 C-11.86 36.85 -10.14 35.58 -8.12 34.19 C-2.39 30.03 2.07 25.1 4.12 18.25 C3.98 14.43 3.45 12.92 1 10 C-3.84 6.06 -9 3.82 -15.29 4.11 C-17.2 4.34 -19.1 4.66 -21 5 C-21 4.01 -21 3.02 -21 2 C-14.85 -3.16 -7.1 -2.57 0 0 Z " fill="#000100" transform="translate(988,637)"/>
<path d="M0 0 C0 3 0 3 -1.5 4.69 C-2 5.12 -2.49 5.55 -3 6 C-0.39 9 1.22 10.8 5.12 11.81 C7.08 11.94 9.04 12 11 12 C11.99 12.66 12.98 13.32 14 14 C17.64 13.68 17.64 13.68 21 13 C21.12 12.22 21.25 11.43 21.38 10.62 C22 8 22 8 24 6 C26.62 6.38 26.62 6.38 29 7 C29.78 10.61 30.29 13.16 29.06 16.69 C25.39 20.8 21.14 22.63 15.75 23.56 C5.38 22.01 -3.89 16.63 -11 9 C-11.88 7.12 -11.88 7.12 -12 5 C-10.76 2.19 -9.96 0.45 -7.12 -0.88 C-4.6 -1.02 -2.45 -0.61 0 0 Z " fill="#000100" transform="translate(926,668)"/>
<path d="M0 0 C3.79 0.53 6.17 1.38 9 4 C9 4.66 9 5.32 9 6 C9.72 6.26 10.44 6.53 11.18 6.8 C14.06 8.02 16.46 9.47 19.06 11.19 C24.18 14.52 29.42 17.56 34.76 20.52 C35.5 21.01 36.24 21.5 37 22 C37 22.66 37 23.32 37 24 C39.48 24.99 39.48 24.99 42 26 C42 26.66 42 27.32 42 28 C42.56 28.04 43.11 28.08 43.69 28.12 C47.28 29.48 48.83 31.92 51 35 C51 36.32 51 37.64 51 39 C50.01 39.33 49.02 39.66 48 40 C45.76 38.66 45.76 38.66 43.12 36.62 C38.95 33.47 34.75 30.4 30.44 27.44 C29.36 26.69 28.28 25.95 27.17 25.18 C25.11 23.76 23.03 22.35 20.95 20.95 C19.58 20.01 19.58 20.01 18.19 19.06 C17.38 18.52 16.57 17.97 15.73 17.41 C15.16 16.94 14.59 16.48 14 16 C14 15.34 14 14.68 14 14 C13.22 13.69 12.43 13.38 11.62 13.06 C9 12 9 12 7 11 C7 10.34 7 9.68 7 9 C6.4 8.75 5.8 8.5 5.19 8.25 C2.66 6.81 1.5 5.47 0 3 C0 2.01 0 1.02 0 0 Z " fill="#000100" transform="translate(918,633)"/>
</svg>
