<svg width="1280" height="655" version="1.1" xmlns="http://www.w3.org/2000/svg" desc="Created with ImageTracer.java version 1.1.2" ><path desc="l 0 p 0" fill="rgb(0,0,0)" stroke="rgb(0,0,0)" stroke-width="1" opacity="0.0" d="M 0.5 0.0 L 1280.0 0.5 L 1279.5 655.0 L 0.0 654.5 L 0.5 0.0 Z" /><path desc="l 1 p 0" fill="rgb(44,42,44)" stroke="rgb(44,42,44)" stroke-width="1" opacity="0.26666666666666666" d="M 527.5 315.0 Q 533.8 313.8 535.0 317.5 Q 531.8 323.3 533.0 333.5 Q 535.3 334.8 534.0 339.5 Q 533.0 344.0 535.5 345.0 Q 537.8 346.8 537.0 351.5 L 541.0 360.5 L 543.0 366.5 L 546.5 379.0 Q 549.5 379.5 549.0 383.5 L 550.0 387.5 L 553.5 394.0 Q 556.5 396.0 556.0 401.5 L 557.0 405.5 Q 555.7 413.8 559.0 417.5 L 563.5 433.0 L 566.0 442.5 L 563.5 446.0 L 557.5 447.0 L 554.0 444.5 Q 550.4 442.6 551.0 436.5 L 550.5 432.0 L 548.5 426.0 Q 546.3 423.3 547.0 417.5 L 543.0 405.5 L 540.5 400.0 Q 538.2 402.7 532.5 402.0 L 532.5 401.0 Q 538.2 401.7 540.5 399.0 L 543.0 400.5 L 550.0 426.5 Q 552.7 429.8 552.0 436.5 Q 552.9 443.1 557.5 446.0 Q 563.0 447.0 564.0 443.5 Q 565.2 435.8 562.0 432.5 L 558.0 418.5 L 556.0 411.5 L 555.0 407.5 Q 556.5 398.0 552.0 394.5 Q 547.9 389.6 547.0 381.5 Q 543.3 379.3 544.0 372.5 L 540.5 363.0 L 536.0 352.5 L 533.0 341.5 L 531.0 324.5 L 533.0 317.5 L 529.5 316.0 L 524.0 320.5 L 522.0 326.5 Q 518.3 328.8 519.0 335.5 L 512.0 353.5 L 507.5 362.0 L 499.0 384.5 L 492.0 398.5 Q 488.0 401.0 488.5 408.0 Q 488.6 418.1 484.0 423.5 L 483.0 428.5 L 481.5 434.0 L 478.0 447.5 L 476.0 450.5 L 475.0 456.5 L 470.0 462.5 Q 466.8 463.8 468.0 469.5 L 472.0 478.5 Q 471.5 482.5 474.5 483.0 Q 480.8 484.3 482.0 480.5 L 484.5 470.0 L 485.0 463.5 Q 483.5 458.0 486.0 456.5 L 488.0 448.5 Q 487.3 442.8 490.0 440.5 L 493.5 427.0 Q 496.6 425.6 496.0 420.5 L 498.0 412.5 L 501.5 407.0 L 505.5 406.0 L 505.5 407.0 Q 501.5 406.5 501.0 409.5 L 497.0 419.5 Q 498.0 425.5 495.0 427.5 L 493.0 434.5 L 491.5 440.0 L 489.0 446.5 Q 490.0 455.0 486.0 458.5 L 485.0 474.5 Q 485.6 481.1 481.5 483.0 L 474.5 484.0 L 471.0 481.5 L 470.0 477.5 L 468.5 474.0 Q 465.5 471.0 467.0 463.5 L 473.0 456.5 L 474.5 452.0 L 478.5 440.0 L 481.0 430.5 L 487.0 411.5 Q 485.5 402.0 490.0 398.5 L 494.5 391.0 L 499.0 380.5 L 506.5 362.0 L 508.5 357.0 L 510.5 353.0 L 513.0 347.5 L 516.5 337.0 L 520.5 326.0 L 524.5 317.0 L 527.5 315.0 Z" /><path desc="l 6 p 0" fill="rgb(64,62,66)" stroke="rgb(64,62,66)" stroke-width="1" opacity="0.4235294117647059" d="M 529.5 316.0 L 533.0 317.5 L 532.0 322.5 L 531.0 329.5 L 533.0 340.5 L 534.0 345.5 L 536.0 352.5 L 540.0 360.5 L 542.0 367.5 L 545.5 380.0 Q 548.8 382.8 549.0 388.5 L 553.5 397.0 Q 556.5 400.0 555.0 407.5 L 556.0 411.5 L 558.0 418.5 L 560.0 424.5 L 561.5 432.0 Q 565.3 435.3 564.0 443.5 Q 563.0 447.0 557.5 446.0 Q 552.9 443.1 552.0 436.5 L 550.5 427.0 L 542.5 400.0 L 541.0 399.5 L 543.5 399.0 L 551.0 422.5 L 553.0 432.5 Q 552.9 441.6 558.5 445.0 Q 562.5 445.5 563.0 442.5 Q 563.8 437.8 561.5 436.0 L 559.0 426.5 L 557.0 419.5 L 555.0 413.5 L 554.0 407.5 L 553.0 402.5 L 552.5 399.0 L 550.0 393.5 L 542.0 373.5 L 539.0 362.5 L 535.5 353.0 L 533.0 347.5 L 531.0 337.5 L 530.0 330.5 L 529.0 326.5 L 531.0 318.5 L 528.5 318.0 L 524.5 323.0 L 520.0 332.5 Q 521.1 338.6 518.5 341.0 L 515.5 348.0 L 508.5 363.0 L 496.0 394.5 Q 490.3 399.3 490.0 409.5 L 489.0 413.5 L 488.5 417.0 L 486.0 422.5 L 482.5 436.0 L 476.5 455.0 L 471.5 463.0 Q 468.5 464.5 470.0 470.5 L 473.0 476.5 L 475.5 482.0 Q 480.3 482.8 481.0 479.5 L 484.0 464.5 L 483.0 462.5 L 487.0 447.5 Q 486.2 441.2 489.0 438.5 L 493.0 424.5 L 495.0 418.5 L 496.5 413.0 L 500.5 406.0 L 506.5 405.0 L 506.5 406.0 Q 501.4 405.4 500.0 408.5 L 496.0 418.5 Q 497.0 424.5 494.0 426.5 L 488.0 447.5 L 487.0 454.5 Q 484.4 455.9 485.0 460.5 Q 486.2 475.7 479.5 483.0 Q 473.3 484.3 472.0 480.5 Q 472.8 475.2 470.0 473.5 Q 467.2 470.8 468.0 464.5 L 473.5 458.0 L 475.5 453.0 Q 475.3 448.8 478.0 447.5 L 484.0 424.5 L 486.5 418.0 Q 488.9 414.9 488.0 408.5 L 489.0 405.5 L 490.0 401.5 L 492.0 398.5 Q 495.7 395.7 496.0 389.5 L 498.0 386.5 L 499.0 382.5 L 503.5 373.0 L 505.5 368.0 L 507.0 362.5 L 511.5 354.0 L 518.0 338.5 L 519.0 333.5 L 521.0 327.5 L 523.0 322.5 L 527.5 317.0 L 529.5 316.0 Z" /><path desc="l 5 p 0" fill="rgb(119,113,121)" stroke="rgb(119,113,121)" stroke-width="1" opacity="0.796078431372549" d="M 528.5 318.0 L 531.0 318.5 L 529.0 328.5 Q 532.7 332.8 531.0 342.5 L 530.0 342.5 L 529.0 336.5 L 529.0 334.5 L 527.5 330.0 L 526.0 329.5 L 525.5 328.0 L 521.5 330.0 L 522.0 328.5 L 524.0 323.5 L 528.5 318.0 Z" /><path desc="l 7 p 0" fill="rgb(80,73,89)" stroke="rgb(80,73,89)" stroke-width="1" opacity="0.8392156862745098" d="M 521.5 328.0 L 523.5 329.0 L 525.5 328.0 L 526.5 330.0 L 528.0 330.5 L 530.0 335.5 L 529.0 339.5 L 530.5 343.0 L 532.0 342.5 L 533.5 348.0 L 538.0 358.5 L 537.5 360.0 L 539.0 360.5 L 538.0 362.5 L 542.0 370.5 Q 541.7 377.3 545.0 380.5 L 547.0 387.5 L 550.0 392.5 L 550.0 394.5 L 550.5 396.0 L 552.0 396.5 L 554.0 406.5 L 554.0 408.5 Q 554.2 416.8 558.0 421.5 L 557.0 423.5 L 559.0 424.5 Q 559.0 433.5 563.0 438.5 L 562.0 440.5 L 563.0 442.5 Q 562.5 445.5 558.5 445.0 L 554.0 438.5 L 555.0 435.5 L 553.0 435.5 L 554.0 432.5 Q 550.7 429.3 551.0 422.5 L 546.0 406.5 L 546.0 404.5 L 543.5 399.0 Q 538.8 400.3 537.5 398.0 L 536.5 400.0 L 533.5 401.0 L 529.5 400.0 L 525.5 402.0 L 521.5 402.0 L 515.5 404.0 L 515.5 402.0 L 507.5 404.0 L 499.0 407.5 L 495.0 417.5 L 491.0 430.5 L 487.0 444.5 L 483.0 463.5 L 484.0 466.5 L 482.0 467.5 L 481.0 472.5 L 482.0 476.5 L 478.5 482.0 Q 474.8 482.8 474.0 480.5 L 475.0 475.5 L 472.0 473.5 Q 468.8 471.2 470.0 464.5 L 474.0 461.5 L 473.5 460.0 L 476.0 457.5 L 477.0 452.5 L 478.5 449.0 L 481.0 441.5 Q 480.5 436.0 483.5 434.0 L 485.0 425.5 L 488.0 418.5 L 491.0 404.5 Q 492.8 396.3 498.0 391.5 L 498.0 389.5 L 503.0 377.5 Q 503.8 370.3 508.0 366.5 Q 507.3 362.3 510.0 361.5 Q 507.5 360.0 511.0 358.5 L 518.0 342.5 L 520.0 335.5 Q 519.4 330.9 522.0 329.5 L 521.5 328.0 Z" /><path desc="l 5 p 1" fill="rgb(119,113,121)" stroke="rgb(119,113,121)" stroke-width="1" opacity="0.796078431372549" d="M 527.5 339.0 L 529.0 343.5 L 526.0 344.5 L 526.5 346.0 L 523.0 345.5 L 525.5 340.0 L 527.5 339.0 Z" /><path desc="l 6 p 1" fill="rgb(64,62,66)" stroke="rgb(64,62,66)" stroke-width="1" opacity="0.4235294117647059" d="M 522.5 347.0 Q 527.0 346.0 528.0 348.5 L 532.5 361.0 L 534.5 367.0 L 536.0 374.5 L 539.0 382.5 L 541.0 392.5 Q 540.5 395.5 536.5 395.0 L 536.5 394.0 L 539.0 393.5 L 540.0 389.5 L 536.0 378.5 L 534.0 369.5 L 526.5 348.0 Q 522.0 347.0 521.0 349.5 Q 521.7 355.7 518.5 358.0 L 514.5 367.0 L 508.0 381.5 Q 508.8 386.3 506.5 388.0 L 503.0 397.5 Q 504.4 400.1 509.0 399.5 L 503.5 400.0 Q 499.3 398.3 502.0 396.5 Q 507.3 377.8 515.5 362.0 L 517.5 357.0 L 519.5 353.0 Q 519.3 348.3 522.5 347.0 Z" /><path desc="l 1 p 1" fill="rgb(44,42,44)" stroke="rgb(44,42,44)" stroke-width="1" opacity="0.26666666666666666" d="M 522.5 348.0 L 527.0 348.5 L 535.5 376.0 L 540.0 391.5 L 538.5 394.0 L 537.0 393.5 L 539.0 390.5 L 535.0 379.5 L 533.5 372.0 L 525.5 349.0 L 522.0 350.5 L 520.5 358.0 L 518.0 359.5 L 516.0 367.5 L 513.5 373.0 L 509.0 382.5 Q 509.8 387.3 507.5 389.0 L 505.0 397.5 L 510.0 398.5 L 504.5 399.0 L 503.0 396.5 L 512.5 372.0 L 518.5 358.0 L 522.5 348.0 Z" /><path desc="l 0 p 1" fill="rgb(0,0,0)" stroke="rgb(0,0,0)" stroke-width="1" opacity="0.0" d="M 523.5 349.0 L 526.0 349.5 L 533.0 371.5 L 535.0 378.5 L 539.0 391.5 Q 538.3 394.8 533.5 394.0 L 528.5 395.0 L 505.5 398.0 L 505.0 394.5 L 519.5 358.0 L 521.0 357.5 L 522.0 352.5 L 523.5 349.0 Z" /><path desc="l 5 p 2" fill="rgb(119,113,121)" stroke="rgb(119,113,121)" stroke-width="1" opacity="0.796078431372549" d="M 537.5 376.0 L 539.0 379.5 L 537.0 378.5 L 537.5 376.0 Z" /><path desc="l 5 p 3" fill="rgb(119,113,121)" stroke="rgb(119,113,121)" stroke-width="1" opacity="0.796078431372549" d="M 541.5 392.0 L 542.0 393.5 L 540.0 394.5 L 541.5 392.0 Z" /><path desc="l 5 p 4" fill="rgb(119,113,121)" stroke="rgb(119,113,121)" stroke-width="1" opacity="0.796078431372549" d="M 549.5 393.0 L 551.0 395.5 L 550.0 395.5 L 549.5 393.0 Z" /><path desc="l 1 p 2" fill="rgb(44,42,44)" stroke="rgb(44,42,44)" stroke-width="1" opacity="0.26666666666666666" d="M 529.5 394.0 L 536.0 394.5 L 529.5 395.0 L 529.5 394.0 Z" /><path desc="l 1 p 3" fill="rgb(44,42,44)" stroke="rgb(44,42,44)" stroke-width="1" opacity="0.26666666666666666" d="M 525.5 395.0 L 528.0 395.5 L 525.5 396.0 L 525.5 395.0 Z" /><path desc="l 6 p 2" fill="rgb(64,62,66)" stroke="rgb(64,62,66)" stroke-width="1" opacity="0.4235294117647059" d="M 528.5 395.0 L 533.0 395.5 L 524.5 397.0 L 524.5 396.0 L 528.5 395.0 Z" /><path desc="l 1 p 4" fill="rgb(44,42,44)" stroke="rgb(44,42,44)" stroke-width="1" opacity="0.26666666666666666" d="M 519.5 396.0 L 524.0 396.5 L 519.5 397.0 L 519.5 396.0 Z" /><path desc="l 1 p 5" fill="rgb(44,42,44)" stroke="rgb(44,42,44)" stroke-width="1" opacity="0.26666666666666666" d="M 511.5 397.0 L 517.0 397.5 L 511.5 398.0 L 511.5 397.0 Z" /><path desc="l 6 p 3" fill="rgb(64,62,66)" stroke="rgb(64,62,66)" stroke-width="1" opacity="0.4235294117647059" d="M 517.5 397.0 L 521.0 397.5 L 517.5 398.0 L 517.5 397.0 Z" /><path desc="l 6 p 4" fill="rgb(64,62,66)" stroke="rgb(64,62,66)" stroke-width="1" opacity="0.4235294117647059" d="M 510.5 398.0 L 516.0 398.5 L 510.5 399.0 L 510.5 398.0 Z" /><path desc="l 5 p 5" fill="rgb(119,113,121)" stroke="rgb(119,113,121)" stroke-width="1" opacity="0.796078431372549" d="M 496.5 399.0 L 497.5 401.0 L 496.0 400.5 L 496.5 399.0 Z" /><path desc="l 6 p 5" fill="rgb(64,62,66)" stroke="rgb(64,62,66)" stroke-width="1" opacity="0.4235294117647059" d="M 537.5 399.0 L 539.0 399.5 L 534.5 401.0 L 534.5 400.0 L 537.5 399.0 Z" /><path desc="l 5 p 6" fill="rgb(119,113,121)" stroke="rgb(119,113,121)" stroke-width="1" opacity="0.796078431372549" d="M 529.5 400.0 L 533.0 400.5 L 529.5 401.0 L 529.5 400.0 Z" /><path desc="l 6 p 6" fill="rgb(64,62,66)" stroke="rgb(64,62,66)" stroke-width="1" opacity="0.4235294117647059" d="M 526.5 401.0 L 532.0 401.5 L 523.5 403.0 L 523.5 402.0 L 526.5 401.0 Z" /><path desc="l 5 p 7" fill="rgb(119,113,121)" stroke="rgb(119,113,121)" stroke-width="1" opacity="0.796078431372549" d="M 514.5 402.0 L 516.0 402.5 Q 515.0 405.0 510.5 404.0 L 510.5 403.0 L 514.5 402.0 Z" /><path desc="l 5 p 8" fill="rgb(119,113,121)" stroke="rgb(119,113,121)" stroke-width="1" opacity="0.796078431372549" d="M 519.5 402.0 L 522.0 402.5 L 519.5 403.0 L 519.5 402.0 Z" /><path desc="l 1 p 6" fill="rgb(44,42,44)" stroke="rgb(44,42,44)" stroke-width="1" opacity="0.26666666666666666" d="M 526.5 402.0 L 529.0 402.5 L 521.5 404.0 L 521.5 403.0 L 526.5 402.0 Z" /><path desc="l 5 p 9" fill="rgb(119,113,121)" stroke="rgb(119,113,121)" stroke-width="1" opacity="0.796078431372549" d="M 545.5 402.0 L 547.0 405.5 L 545.0 404.5 L 545.5 402.0 Z" /><path desc="l 6 p 7" fill="rgb(64,62,66)" stroke="rgb(64,62,66)" stroke-width="1" opacity="0.4235294117647059" d="M 516.5 403.0 L 521.0 403.5 L 516.5 404.0 L 516.5 403.0 Z" /><path desc="l 5 p 10" fill="rgb(119,113,121)" stroke="rgb(119,113,121)" stroke-width="1" opacity="0.796078431372549" d="M 505.5 404.0 L 509.0 404.5 L 505.5 405.0 L 505.5 404.0 Z" /><path desc="l 6 p 8" fill="rgb(64,62,66)" stroke="rgb(64,62,66)" stroke-width="1" opacity="0.4235294117647059" d="M 509.5 404.0 L 515.0 404.5 L 509.5 405.0 L 509.5 404.0 Z" /><path desc="l 1 p 7" fill="rgb(44,42,44)" stroke="rgb(44,42,44)" stroke-width="1" opacity="0.26666666666666666" d="M 515.5 404.0 L 520.0 404.5 L 515.0 405.5 L 507.5 406.0 L 507.5 405.0 Q 513.8 406.8 515.5 404.0 Z" /><path desc="l 5 p 11" fill="rgb(119,113,121)" stroke="rgb(119,113,121)" stroke-width="1" opacity="0.796078431372549" d="M 557.5 422.0 L 558.5 424.0 L 557.0 423.5 L 557.5 422.0 Z" /><path desc="l 5 p 12" fill="rgb(119,113,121)" stroke="rgb(119,113,121)" stroke-width="1" opacity="0.796078431372549" d="M 554.5 435.0 L 555.0 437.5 L 554.0 437.5 L 554.5 435.0 Z" /><path desc="l 5 p 13" fill="rgb(119,113,121)" stroke="rgb(119,113,121)" stroke-width="1" opacity="0.796078431372549" d="M 482.5 467.0 L 484.0 467.5 L 482.5 473.0 L 481.0 472.5 L 482.5 467.0 Z" /><path desc="l 5 p 14" fill="rgb(119,113,121)" stroke="rgb(119,113,121)" stroke-width="1" opacity="0.796078431372549" d="M 473.5 474.0 Q 475.8 474.8 475.0 478.5 L 473.5 479.0 L 473.5 474.0 Z" /></svg>