<?xml version="1.0" encoding="UTF-8"?>
<!-- Generator: visioncortex VTracer 0.6.3 -->
<svg version="1.1" xmlns="http://www.w3.org/2000/svg" width="1280" height="956">
<path d="M0 0 C1.42 -0.01 2.83 -0.05 4.25 -0.12 C8.77 -0.18 13.12 0.55 17.56 1.31 C18.63 1.49 18.63 1.49 19.71 1.67 C23.29 2.32 26.53 3.15 29.9 4.54 C39.41 8.21 47.95 6.59 57.69 4.5 C71.86 1.49 71.86 1.49 78 3 C78.69 4.81 78.69 4.81 79 7 C76.76 9.97 74.56 10.6 71 11.35 C69.55 11.67 69.55 11.67 68.06 11.99 C67.05 12.2 66.04 12.41 65 12.62 C63 13.05 61 13.48 59 13.91 C58.11 14.1 57.23 14.28 56.31 14.48 C53.86 14.99 53.86 14.99 51 16 C51.1 17.39 51.1 17.39 51.21 18.82 C51.71 30.18 51.71 30.18 48.44 34.19 C44.25 38.06 39.71 40.09 34 40.44 C19 39.8 4.03 32.64 -8 24 C-8.88 22.91 -8.88 22.91 -9.78 21.79 C-13.33 18.93 -17.14 19.4 -21.56 19.38 C-23.27 19.35 -24.98 19.32 -26.69 19.27 C-27.45 19.27 -28.2 19.26 -28.98 19.26 C-31 19 -31 19 -34 17 C-34.5 13.69 -34.5 13.69 -34 10 C-30.48 5.71 -26.62 3.52 -21.5 1.62 C-20.8 1.36 -20.1 1.1 -19.37 0.83 C-12.66 -1.46 -6.96 -1.03 0 0 Z M-9 8 C-8.3 10.03 -8.3 10.03 -7 12 C0.4 14.71 10.5 12.65 18 11 C18.33 10.34 18.66 9.68 19 9 C12.82 7.34 6.87 6.81 0.5 6.81 C-0.21 6.81 -0.91 6.81 -1.64 6.81 C-5.45 6.8 -5.45 6.8 -9 8 Z M-22 10 C-22.66 10.66 -23.32 11.32 -24 12 C-21.52 12.5 -21.52 12.5 -19 13 C-19 12.01 -19 11.02 -19 10 C-19.99 10 -20.98 10 -22 10 Z M18.19 17.38 C16.97 17.51 15.76 17.65 14.51 17.8 C7.69 18.55 7.69 18.55 1 20 C2.03 22.88 2.75 23.86 5.47 25.38 C11.18 27.61 16.85 29.72 22.76 31.37 C24.75 31.93 26.72 32.58 28.69 33.25 C33.66 34.37 37.33 33.83 41.88 31.56 C44.1 30.17 44.1 30.17 45 28 C45.4 24.4 45.22 22.43 43.56 19.19 C37.02 13.6 26.07 16.41 18.19 17.38 Z " fill="#000000" transform="translate(543,656)"/>
</svg>
