<svg id="svg" version="1.1" xmlns="http://www.w3.org/2000/svg" style="display: block; background: rgb(0, 0, 0);" viewBox="0 0 411 494"><path d="M0 0 C3.77556619 0.48016783 6.75888761 1.7029742 10.125 3.4375 C10.97320312 3.86933594 11.82140625 4.30117188 12.6953125 4.74609375 C15 6 15 6 18 8 C18 8.66 18 9.32 18 10 C18.73992187 10.2475 19.47984375 10.495 20.2421875 10.75 C23.2622726 12.1188771 24.86934555 13.59396859 27.125 16 C29.38337091 18.39018244 31.24241118 20.16160745 34 22 C34 22.66 34 23.32 34 24 C34.99 24.33 35.98 24.66 37 25 C41 29.45714286 41 29.45714286 41 32 C41.5878125 32.24105469 42.175625 32.48210937 42.78125 32.73046875 C49.05660551 36.32112111 52.26671176 43.98060825 54.4375 50.5625 C57.11952106 60.48946106 56.41334452 67.62717802 52 77 C50.48828125 79.32421875 50.48828125 79.32421875 49 81 C48.34 81 47.68 81 47 81 C46.92007813 81.5878125 46.84015625 82.175625 46.7578125 82.78125 C44.66432542 88.91063485 35.56943574 93.21528213 30 96 C21.31085024 99.23713422 10.79047532 100.43277686 2 97 C-8.14020255 92.00181505 -17.06473342 82.12660832 -22 72 C-23.54797724 67.11791794 -23.61855065 61.85565194 -22 57 C-18.68358895 54.66680728 -15.53080313 54.7012629 -11.5625 54.6875 C-10.45003906 54.67074219 -9.33757812 54.65398437 -8.19140625 54.63671875 C-4.71507852 55.03243292 -2.82840365 55.99632714 0 58 C-0.33 58.99 -0.66 59.98 -1 61 C-5.95 61 -10.9 61 -16 61 C-14.95421215 68.39706372 -14.95421215 68.39706372 -10.375 73.375 C-6.4834831 77.39937096 -3.05162098 81.42960317 0.13671875 86.02734375 C2.72751007 88.77021506 5.47441077 90.70011902 9 92 C11.92564087 92.04353632 14.17942186 91.92110487 17 91.4375 C18.00933594 91.30504883 18.00933594 91.30504883 19.0390625 91.16992188 C26.36161255 90.0885028 31.86886973 87.13494832 38 83 C38.66 83 39.32 83 40 83 C40.495 81.515 40.495 81.515 41 80 C41.78375 79.236875 42.5675 78.47375 43.375 77.6875 C47.99405121 72.95847138 49.20721577 69.290072 49.4375 62.75 C48.98056342 47.75571067 38.81233759 33.90860325 28.18359375 23.8671875 C25.38105387 21.47074016 22.47640127 19.27332719 19.43359375 17.19140625 C18.96050781 16.79824219 18.48742187 16.40507812 18 16 C18 15.34 18 14.68 18 14 C17.34 13.773125 16.68 13.54625 16 13.3125 C12.76502164 11.89719697 9.96891846 10.14384618 7.00390625 8.2421875 C4.42239671 6.64195351 1.74180614 5.30235792 -1 4 C-1 1 -1 1 0 0 Z " transform="translate(125,273)" style="fill: #FFFFFF;"/></svg>