<svg id="svg" version="1.1" xmlns="http://www.w3.org/2000/svg" style="display: block; background: rgb(0, 0, 0);" viewBox="0 0 373 306"><path d="M0 0 C1.010625 0.763125 2.02125 1.52625 3.0625 2.3125 C5.50338255 5.69824031 5.52360184 7.93211287 5.46875 12.01171875 C5 14 5 14 2 16 C0.68 16 -0.64 16 -2 16 C-2.103125 16.721875 -2.20625 17.44375 -2.3125 18.1875 C-3.06793947 21.27793421 -4.15531315 23.41743841 -6 26 C-6.66 26 -7.32 26 -8 26 C-8.20625 26.66 -8.4125 27.32 -8.625 28 C-10.49124252 32.07180186 -12.97561527 35.68796998 -16 39 C-16.66 39 -17.32 39 -18 39 C-18.20625 39.721875 -18.4125 40.44375 -18.625 41.1875 C-20.42469884 44.86870218 -22.69729204 46.62205027 -26 49 C-32.794131 51.23640145 -39.95459481 50.87853182 -46.375 47.8125 C-55.13495775 42.77900047 -55.13495775 42.77900047 -56.80859375 37.40234375 C-59.01652045 26.77412517 -57.51117159 18.23643957 -51.578125 9.1640625 C-48.28413031 4.64704998 -45.39059959 1.69418844 -40 0 C-40 -0.66 -40 -1.32 -40 -2 C-26.9850802 -9.44204191 -12.00564439 -9.17814683 0 0 Z M-45.7578125 11.17578125 C-50.96887566 18.66511115 -52.6712507 24.9153796 -51.796875 34.0546875 C-51.24837027 37.00725674 -51.24837027 37.00725674 -49.390625 38.6953125 C-47.26386955 39.80814966 -45.33549778 40.45686098 -43 41 C-41.824375 41.28875 -40.64875 41.5775 -39.4375 41.875 C-34.75922249 42.04511918 -30.82704451 41.41448607 -27.0625 38.5 C-25.80732755 37.0343552 -25.80732755 37.0343552 -26 35 C-25.44828125 34.8040625 -24.8965625 34.608125 -24.328125 34.40625 C-21.02467914 32.41088002 -19.02239605 29.54527494 -16.75 26.5 C-16.29109375 25.90574219 -15.8321875 25.31148437 -15.359375 24.69921875 C-12.82856057 21.68562634 -12.82856057 21.68562634 -12 18 C-11.34 18 -10.68 18 -10 18 C-10 17.01 -10 16.02 -10 15 C-9.34 15 -8.68 15 -8 15 C-7.7525 14.21625 -7.505 13.4325 -7.25 12.625 C-5.84610901 9.67682892 -4.99324263 9.0975223 -2 8 C-2 7.01 -2 6.02 -2 5 C-9.60459856 0.79985091 -9.60459856 0.79985091 -18 -1 C-19.2375 -1.103125 -20.475 -1.20625 -21.75 -1.3125 C-30.93166009 -1.15479973 -40.07190199 4.13788758 -45.7578125 11.17578125 Z " transform="translate(184,155)" style="fill: #FFFFFF;"/></svg>