<svg id="svg" version="1.1" xmlns="http://www.w3.org/2000/svg" style="display: block; background: rgb(0, 0, 0);" viewBox="0 0 266 259"><path d="M0 0 C0.33 0.66 0.66 1.32 1 2 C0.67 2.66 0.34 3.32 0 4 C-0.66 4 -1.32 4 -2 4 C-2.08636719 4.53625 -2.17273438 5.0725 -2.26171875 5.625 C-3.25674704 8.82593757 -4.94176627 11.22340078 -6.8125 14 C-7.49957031 15.03125 -8.18664062 16.0625 -8.89453125 17.125 C-10.7810082 19.70096852 -12.5962562 21.90365321 -15 24 C-15.66 24 -16.32 24 -17 24 C-15.28554784 18.32911977 -13.19526184 14.15492278 -9 10 C-7.8032558 8.65399594 -6.61611912 7.2994033 -5.4375 5.9375 C-3.66761787 3.89357161 -1.91233177 1.91233177 0 0 Z " transform="translate(88,176)" style="fill: #FFFFFF;"/><path d="M0 0 C1.13566406 -0.00515625 2.27132812 -0.0103125 3.44140625 -0.015625 C6.4375 0.25 6.4375 0.25 9.4375 2.25 C9.1075 2.91 8.7775 3.57 8.4375 4.25 C7.798125 3.899375 7.15875 3.54875 6.5 3.1875 C2.24366357 1.88453987 -1.31736247 1.82249777 -5.5625 3.25 C-8.02907856 5.2932886 -9.79385336 7.59413061 -11.5625 10.25 C-12.5525 11.735 -12.5525 11.735 -13.5625 13.25 C-16.31533571 21.78742882 -18.43641412 31.06897146 -14.5 39.53515625 C-11.31742442 44.37230948 -7.8008099 46.28000657 -2.62109375 48.57421875 C1.54872581 50.85883253 5.08298926 53.73897581 8.75 56.75 C9.43175293 57.30840576 10.11350586 57.86681152 10.81591797 58.44213867 C14.54782349 61.54746965 18.04238752 64.77363696 21.4375 68.25 C22.16453125 68.91902344 22.8915625 69.58804688 23.640625 70.27734375 C29.21816914 75.48234201 29.21816914 75.48234201 30.4375 79.75 C30.4375 80.575 30.4375 81.4 30.4375 82.25 C28.4375 83.0625 28.4375 83.0625 25.4375 83.25 C15.23285058 77.96544941 6.17182438 69.78763511 -2.625 62.4375 C-3.16084717 61.99390137 -3.69669434 61.55030273 -4.2487793 61.09326172 C-7.42744744 58.40303662 -10.15346397 55.65269118 -12.5625 52.25 C-12.5625 51.59 -12.5625 50.93 -12.5625 50.25 C-13.2225 50.25 -13.8825 50.25 -14.5625 50.25 C-24.97585383 33.78788711 -24.97585383 33.78788711 -23.0703125 23.625 C-21.7144513 18.50624312 -19.78707689 14.48801535 -16.5625 10.25 C-16.08425781 9.56679687 -15.60601562 8.88359375 -15.11328125 8.1796875 C-10.60591192 1.84439258 -8.0216215 -0.0365034 0 0 Z " transform="translate(52.5625,157.75)" style="fill: #FFFFFF;"/></svg>