<svg id="svg" version="1.1" xmlns="http://www.w3.org/2000/svg" style="display: block; background: rgb(0, 0, 0);" viewBox="0 0 397 337"><path d="M0 0 C0.66 0 1.32 0 2 0 C3.65 3.96 5.3 7.92 7 12 C6.34 12 5.68 12 5 12 C4.16180842 10.37750059 3.3295884 8.75191503 2.5 7.125 C2.0359375 6.22007813 1.571875 5.31515625 1.09375 4.3828125 C0 2 0 2 0 0 Z " transform="translate(241,103)" style="fill: #FFFFFF;"/><path d="M0 0 C3.67230705 3.07999946 4.56802365 5.2482602 5 10 C2.08772731 6.71195019 0.50298788 4.40114397 0 0 Z " transform="translate(236,93)" style="fill: #FFFFFF;"/><path d="M0 0 C3.125 0.375 3.125 0.375 6 1 C6.66 3.31 7.32 5.62 8 8 C7.01 8.33 6.02 8.66 5 9 C5.48566332 15.8964191 6.986834 21.50404435 9.625 27.875 C9.97965332 28.74833984 10.33430664 29.62167969 10.69970703 30.52148438 C13.1540567 36.39794241 15.90380624 41.67615033 19.5546875 46.90625 C20.91513515 48.87706065 21.98611899 50.8344289 23 53 C23.66 53 24.32 53 25 53 C25.7425 53.763125 26.485 54.52625 27.25 55.3125 C30.91881311 58.89793099 33.980425 60.7980425 39.125 61.3125 C41.92096682 61.00859056 43.62503064 60.46151961 46 59 C45.67 59.99 45.34 60.98 45 62 C44.34 62 43.68 62 43 62 C43 62.66 43 63.32 43 64 C33.6390949 64.57311664 27.23462183 61.90581374 20 56 C20 55.01 20 54.02 20 53 C19.34 52.67 18.68 52.34 18 52 C17.31758876 50.67465585 16.65308676 49.34003728 16 48 C15.06356973 46.77461411 14.10380579 45.56681016 13.125 44.375 C8.46455446 38.28231998 6.3538141 31.21836323 4 24 C3.525625 22.845 3.05125 21.69 2.5625 20.5 C0.33078604 14.58710836 -1.25101944 8.27168341 -2 2 C-1.34 1.34 -0.68 0.68 0 0 Z " transform="translate(135,89)" style="fill: #FFFFFF;"/><path d="M0 0 C0.66 0 1.32 0 2 0 C1.6875 1.9375 1.6875 1.9375 1 4 C0.01 4.33 -0.98 4.66 -2 5 C-2.69040574 6.65697379 -3.3530635 8.3255761 -4 10 C-4.61875 10.7425 -5.2375 11.485 -5.875 12.25 C-8.20597707 15.26655856 -9.52407594 18.17630184 -10.98828125 21.671875 C-11.94774056 23.87974275 -13.03581111 25.95037742 -14.1875 28.0625 C-16.22542949 32.03446454 -16.68336391 35.5670947 -17 40 C-16.01 40.33 -15.02 40.66 -14 41 C-18.35714286 43.17857143 -18.35714286 43.17857143 -21.25 42.375 C-23.47922495 40.62346611 -23.66168179 39.79354179 -24 37 C-21.82622737 28.70468376 -17.2476163 22.17012861 -11.98828125 15.59375 C-10.31485291 13.41073149 -9.19225655 11.44781875 -8 9 C-6.3545622 7.31237149 -4.68711423 5.6459651 -3 4 C-2.443125 3.236875 -1.88625 2.47375 -1.3125 1.6875 C-0.6628125 0.8521875 -0.6628125 0.8521875 0 0 Z " transform="translate(184,85)" style="fill: #FFFFFF;"/><path d="M0 0 C0.66 0.33 1.32 0.66 2 1 C1.236875 1.7425 0.47375 2.485 -0.3125 3.25 C-2.95571199 5.823554 -2.95571199 5.823554 -4.6875 8.3125 C-5.3371875 9.1478125 -5.3371875 9.1478125 -6 10 C-6.66 10 -7.32 10 -8 10 C-6.23915938 6.0381086 -3.9706445 1.98532225 0 0 Z " transform="translate(194,75)" style="fill: #FFFFFF;"/><path d="M0 0 C4.24564971 1.41521657 5.42043106 4.50090501 7.5625 8.1875 C7.96146484 8.84814453 8.36042969 9.50878906 8.77148438 10.18945312 C11.0415201 14.02842839 12.75838676 17.68455506 14 22 C10.26776859 18.51214088 7.75067845 14.26881246 5 10 C4.38125 9.05125 3.7625 8.1025 3.125 7.125 C2 5 2 5 2 2 C1.34 2 0.68 2 0 2 C0 1.34 0 0.68 0 0 Z " transform="translate(222,71)" style="fill: #FFFFFF;"/></svg>