<svg id="svg" version="1.1" xmlns="http://www.w3.org/2000/svg" style="display: block; background: rgb(0, 0, 0);" viewBox="0 0 832 320"><path d="M0 0 C2.84650668 0.32939925 3.82431161 0.79342576 5.7109375 3.01171875 C14.02382391 16.37868399 23.91262021 34.70439209 21 51 C15.02752318 59.36146755 4.58591676 61.33404762 -5 63 C-26.79356846 66 -26.79356846 66 -37 66 C-35.32536114 70.43286758 -33.28681295 74.21952226 -30.6875 78.1875 C-24.53365275 87.67197072 -17.09527775 99.23861079 -18 111 C-20.2109375 111.75390625 -20.2109375 111.75390625 -23 112 C-28.2737324 108.27685005 -32.77223058 103.08923641 -35 97 C-35 96.34 -35 95.68 -35 95 C-35.66 95 -36.32 95 -37 95 C-37.40992188 94.08476562 -37.81984375 93.16953125 -38.2421875 92.2265625 C-38.78101563 91.03804688 -39.31984375 89.84953125 -39.875 88.625 C-40.40867187 87.44164062 -40.94234375 86.25828125 -41.4921875 85.0390625 C-42.8096989 81.97752957 -42.8096989 81.97752957 -45 80 C-45.103125 79.401875 -45.20625 78.80375 -45.3125 78.1875 C-45.8792389 75.73450763 -45.8792389 75.73450763 -48.4375 73.8125 C-51.67499169 70.25915546 -52.85373216 66.80963085 -53 62 C-52.47265625 59.78515625 -52.47265625 59.78515625 -51 58 C-45.06893293 56.47170101 -38.89687401 56.96715803 -32.8125 57.0625 C-17.44492708 57.16128146 -2.40691763 56.86948496 12 51 C12.99 50.67 13.98 50.34 15 50 C15.23393861 44.83778201 14.59461444 41.04176797 12.76953125 36.21875 C12.53723312 35.60157104 12.304935 34.98439209 12.06559753 34.34851074 C11.57437024 33.05228623 11.07739907 31.75822513 10.57495117 30.46630859 C9.8166614 28.51073197 9.0820219 26.54742424 8.34960938 24.58203125 C5.44491799 16.84339142 5.44491799 16.84339142 1.125 9.83984375 C-1 7 -1 7 -0.8125 3.0625 C-0.544375 2.051875 -0.27625 1.04125 0 0 Z " transform="translate(411,140)" style="fill: #FFFFFF;"/></svg>