<svg id="svg" version="1.1" xmlns="http://www.w3.org/2000/svg" style="display: block; background: rgb(0, 0, 0);" viewBox="0 0 371 338"><path d="M0 0 C1.5154087 0.76175625 3.01486432 1.5557881 4.5 2.375 C5.39589844 2.85710937 6.29179687 3.33921875 7.21484375 3.8359375 C14.82997372 8.14061642 14.82997372 8.14061642 16.5 12.375 C11.35542068 10.1361553 6.29055099 7.82034234 1.32421875 5.20703125 C-5.51368624 2.08824375 -12.7016847 2.85832992 -19.57421875 5.3984375 C-21.72333858 6.34674876 -21.72333858 6.34674876 -23.625 8.6875 C-24.74077576 12.11452555 -24.57430517 13.93722346 -23.5 17.375 C-21.03366817 20.97800696 -21.03366817 20.97800696 -17.5 23.375 C-17.5 24.035 -17.5 24.695 -17.5 25.375 C-4.14324781 28.7930665 7.56433509 26.10545661 19.29296875 19.171875 C26.48215148 14.80322204 33.3424742 10.10713729 40.08203125 5.0703125 C43.40253973 2.74220155 46.81061506 1.04566488 50.5 -0.625 C51.49 0.86 51.49 0.86 52.5 2.375 C51.03515625 3.57942708 49.5703125 4.78385417 48.10546875 5.98828125 C46.48389472 7.34169461 46.48389472 7.34169461 45.08984375 8.8671875 C43.1740354 10.68414579 41.16220491 11.86963431 38.875 13.1875 C34.5985166 15.69202908 30.48575159 18.35762912 26.41015625 21.17578125 C24.5 22.375 24.5 22.375 21.5 23.375 C21.5 24.035 21.5 24.695 21.5 25.375 C19.25083381 26.18987171 17.00073022 27.00196918 14.75 27.8125 C14.11578125 28.04259766 13.4815625 28.27269531 12.828125 28.50976562 C6.80963257 30.67266134 1.96584961 31.55666285 -4.4375 31.5625 C-5.49227539 31.58086914 -5.49227539 31.58086914 -6.56835938 31.59960938 C-12.95989731 31.61757996 -17.17120384 30.2273526 -22.0078125 25.9921875 C-25.65987476 22.03419332 -28.12772663 17.4845491 -29.0625 12.1875 C-28.12216701 7.48583506 -26.33359485 4.64981686 -22.359375 1.88671875 C-14.8760607 -2.29028844 -8.01782023 -3.33958417 0 0 Z " transform="translate(140.5,199.625)" style="fill: #FFFFFF;"/></svg>