<?xml version="1.0" encoding="UTF-8"?>
<!-- Generator: visioncortex VTracer 0.6.3 -->
<svg version="1.1" xmlns="http://www.w3.org/2000/svg" width="956" height="1280">
<path d="M0 0 C5.69 0.24 8.57 1.78 12.91 5.43 C19.29 10.22 26.82 11.74 34.39 13.75 C41.93 15.81 47.22 18.76 53 24 C53 24.66 53 25.32 53 26 C53.66 26 54.32 26 55 26 C56.12 31.75 56.12 31.75 55 34 C54.34 34 53.68 34 53 34 C53.06 35.18 53.12 36.35 53.19 37.56 C53.2 41.95 51.88 45.02 50 49 C49.33 51.33 48.66 53.67 48 56 C47.33 57.33 46.67 58.67 46 60 C45.79 61.05 45.59 62.1 45.38 63.19 C43.03 71.58 35.28 76.9 28.1 81 C26 82 26 82 24 82 C24 82.66 24 83.32 24 84 C23.01 84 22.02 84 21 84 C21.33 83.28 21.66 82.56 22 81.81 C23.05 78.87 23.37 77.09 23 74 C21.38 72.25 21.38 72.25 19.19 70.94 C16.12 68.92 13.99 67.11 12 64 C12 63.34 12 62.68 12 62 C11.34 62 10.68 62 10 62 C10 61.34 10 60.68 10 60 C9.34 60 8.68 60 8 60 C8 59.34 8 58.68 8 58 C7.3 57.84 6.6 57.67 5.88 57.5 C-1.86 53.47 -5.17 44.22 -7.91 36.41 C-10.31 28.64 -12.12 20.02 -8.19 12.56 C-7.47 11.72 -6.74 10.87 -6 10 C-4.99 8.34 -3.99 6.67 -3 5 C-2 3.33 -1 1.67 0 0 Z " fill="#000000" transform="translate(339,784)"/>
</svg>
