<?xml version="1.0" encoding="UTF-8"?>
<!-- Generator: visioncortex VTracer 0.6.3 -->
<svg version="1.1" xmlns="http://www.w3.org/2000/svg" width="956" height="1280">
<path d="M0 0 C2.75 2.24 5.29 4.63 7.75 7.19 C8.41 7.52 9.07 7.85 9.75 8.19 C17.83 23.02 18.94 37.58 16.75 54.19 C15.71 56.65 15.71 56.65 14.75 58.19 C14.09 58.19 13.43 58.19 12.75 58.19 C12.67 59.24 12.58 60.29 12.5 61.38 C11.49 66.53 9.81 68.72 5.54 71.76 C-3.49 77.51 -12.13 79.67 -22.79 77.72 C-31.19 75.52 -38.23 71.35 -43.25 64.19 C-48.17 53.77 -52.6 41.88 -49.06 30.38 C-48.49 28.97 -47.89 27.57 -47.25 26.19 C-46.95 25.48 -46.64 24.77 -46.33 24.04 C-43.32 17.42 -39.26 13.62 -32.93 10.21 C-30.31 8.62 -28.39 6.38 -26.25 4.19 C-24.77 2.91 -23.27 1.66 -21.75 0.44 C-21.02 -0.16 -20.29 -0.75 -19.53 -1.36 C-13.14 -5.43 -5.86 -4.32 0 0 Z M-10.25 9.19 C-10.25 9.85 -10.25 10.51 -10.25 11.19 C-9.59 11.52 -8.93 11.85 -8.25 12.19 C-8.93 15.3 -9.99 18.04 -11.31 20.94 C-11.67 21.74 -12.04 22.54 -12.41 23.36 C-12.69 23.96 -12.96 24.57 -13.25 25.19 C-17.93 24.56 -17.93 24.56 -19.56 22.69 C-22.34 20.22 -25.67 20.09 -29.25 20.19 C-32.98 21.51 -33.99 22.7 -35.87 26.19 C-37.75 30.8 -37.65 35.27 -37.56 40.19 C-37.57 41.05 -37.57 41.91 -37.57 42.8 C-37.53 47.97 -36.92 52.3 -35.25 57.19 C-34.59 57.19 -33.93 57.19 -33.25 57.19 C-33 57.8 -32.75 58.42 -32.49 59.05 C-30.09 63.19 -25.12 64.64 -20.69 65.94 C-13.24 66.7 -6.74 66.19 -0.25 62.19 C2.91 58.44 5.34 54.44 7.75 50.19 C8.08 49.86 8.41 49.53 8.75 49.19 C9.12 45.7 9.12 42.19 9.19 38.69 C9.23 37.72 9.28 36.75 9.33 35.75 C9.44 28.3 7.59 23.84 2.75 18.19 C-0.68 14.84 -1.37 14.19 -6.25 14.19 C-6.35 13.55 -6.46 12.91 -6.56 12.25 C-6.79 11.57 -7.02 10.89 -7.25 10.19 C-8.24 9.86 -9.23 9.53 -10.25 9.19 Z " fill="#000000" transform="translate(415.25,371.8125)"/>
</svg>
